<?xml version="1.0" standalone="no"?>
<!DOCTYPE svg PUBLIC "-//W3C//DTD SVG 20010904//EN"
 "http://www.w3.org/TR/2001/REC-SVG-20010904/DTD/svg10.dtd">
<svg version="1.0" xmlns="http://www.w3.org/2000/svg"
 width="661.000000pt" height="661.000000pt" viewBox="0 0 661.000000 661.000000"
 preserveAspectRatio="xMidYMid meet">
<metadata>
Created by potrace 1.11, written by Peter Selinger 2001-2013
</metadata>
<g transform="translate(0.000000,661.000000) scale(0.100000,-0.100000)"
fill="#000000" stroke="none">
<path d="M3418 6605 c-1 -1 -46 -6 -98 -9 -52 -4 -104 -9 -115 -11 -11 -2 -42
-7 -70 -10 -94 -12 -110 -15 -185 -30 -41 -8 -84 -17 -95 -19 -149 -30 -437
-122 -580 -186 -326 -146 -588 -312 -844 -535 -68 -58 -309 -301 -368 -370
-176 -205 -332 -444 -452 -696 -119 -249 -186 -458 -256 -799 -1 -8 -6 -37 -9
-65 -4 -27 -9 -61 -11 -75 -37 -194 -42 -688 -9 -975 31 -279 125 -636 232
-880 31 -70 144 -294 174 -345 281 -470 702 -885 1173 -1157 256 -148 649
-300 895 -347 14 -2 46 -9 73 -15 26 -6 64 -14 85 -17 20 -2 60 -9 87 -14 28
-5 79 -12 115 -16 36 -4 67 -8 70 -9 31 -18 595 -26 770 -12 96 7 121 11 220
27 30 5 73 12 95 16 22 3 94 18 160 34 637 151 1223 511 1738 1069 l57 63
-114 116 c-62 64 -137 142 -166 172 -29 30 -164 170 -300 310 -136 140 -267
276 -291 301 l-44 46 -26 -31 c-92 -108 -120 -138 -193 -210 -363 -355 -793
-548 -1321 -591 -67 -6 -298 -5 -360 0 -373 34 -727 177 -1026 417 -268 214
-467 531 -568 906 -17 61 -33 125 -36 143 -3 19 -10 59 -15 89 -17 96 -25 220
-25 390 0 182 7 272 30 400 24 137 45 217 89 340 172 479 590 889 1112 1090
86 33 285 86 359 96 28 3 53 8 56 10 26 15 396 23 524 10 428 -42 819 -213
1145 -501 65 -57 207 -201 266 -269 l50 -59 103 117 c56 65 115 132 130 149
16 18 115 131 221 252 187 214 282 321 342 388 16 17 42 49 59 69 l30 37 -168
168 c-178 178 -180 180 -313 287 -47 37 -94 75 -104 83 -11 9 -67 48 -125 88
-439 300 -969 496 -1491 550 -30 3 -71 8 -90 11 -39 5 -586 14 -592 9z"/>
<path d="M3590 4209 c-207 -52 -339 -119 -465 -237 -266 -249 -358 -635 -234
-980 97 -269 335 -491 607 -566 95 -26 99 -27 207 -33 176 -9 342 29 492 113
241 135 411 376 456 649 13 76 14 241 3 295 -3 14 -8 39 -12 55 -19 101 -90
256 -157 345 -137 182 -327 302 -562 356 -46 10 -296 12 -335 3z"/>
</g>
</svg>
